<svg xmlns="http://www.w3.org/2000/svg" xmlnsXlink="http://www.w3.org/1999/xlink" width="288" height="288"><svg xmlns="http://www.w3.org/2000/svg" width="288" height="288" enable-background="new 0 0 489.9 489.9" viewBox="0 0 489.9 489.9"><path fill="#e2fb00" d="M244.95,215.1c-75.7,0-137.4,61.6-137.4,137.4c0,75.7,61.6,137.4,137.4,137.4c75.7,0,137.4-61.6,137.4-137.4
		S320.65,215.1,244.95,215.1z M244.95,458.3c-58.4,0-105.9-47.5-105.9-105.9s47.5-105.8,105.9-105.8s105.9,47.5,105.9,105.9
		S303.35,458.3,244.95,458.3z M244.95,275.8c-42.3,0-76.6,34.4-76.6,76.6s34.4,76.6,76.6,76.6c42.3,0,76.6-34.4,76.6-76.6
		S287.25,275.8,244.95,275.8z M289.25,342.8l-20.4,16.7l6.2,25.3c0.8,3.7-2,6.8-5.2,6.8c-1,0-1.9-0.3-2.9-0.9l-22.3-13.8l-22,13.7
		c-0.9,0.6-1.9,0.9-2.9,0.9c-3.2,0-6.2-3.1-5.2-6.8l6.2-25.3l-20.1-16.7c-3.8-3.2-1.6-9.4,3.2-9.7l26.1-1.9l9.9-24.2
		c0.9-2.3,3-3.4,5.1-3.4s4.2,1.1,5.1,3.4l9.9,24.2l26.1,1.9C290.85,333.4,293.05,339.6,289.25,342.8z M184.05,0l106.7,190.5
		c-10.8-3.1-22.1-5.1-33.7-5.9L153.65,0H184.05z M194.25,191.9L86.75,0h31.2l104,185.8C212.45,187.1,203.15,189.1,194.25,191.9z
		 M371.95,0h31.2l-90.5,161.6l-15.6-27.9L371.95,0z M336.25,0l-57,101.8l-15.2-27.1L305.85,0C305.85,0,336.25,0,336.25,0z" class="color000 svgShape"/></svg></svg>